<svg width="69" height="35" viewBox="0 0 69 35" fill="none" xmlns="http://www.w3.org/2000/svg"><mask id="a" style="mask-type:luminance" maskUnits="userSpaceOnUse" x="0" y="0" width="47" height="35"><path d="M0 1.772A1.77 1.77 0 0 1 1.77 0h38.48c3.664 0 6.635 2.975 6.635 6.646v26.582A1.77 1.77 0 0 1 45.115 35H6.635C2.97 35 0 32.025 0 28.354z" fill="#fff"/></mask><g mask="url(#a)"><path d="M0 1.772A1.77 1.77 0 0 1 1.77 0h38.48c3.664 0 6.635 2.975 6.635 6.646v26.582A1.77 1.77 0 0 1 45.115 35H6.635C2.97 35 0 32.025 0 28.354z" fill="#EBB957"/><path d="M0 0h11.942C31.24 0 46.885 15.67 46.885 35H0z" fill="#1A71FF"/></g><path d="m49.886 16.331 11.13-9.723c1.002-.875 2.566-.163 2.566 1.168v19.448c0 1.33-1.564 2.043-2.566 1.168l-11.13-9.723a1.552 1.552 0 0 1 0-2.338Z" fill="#1A71FF" stroke="#EBB957"/></svg>